<?xml version="1.0" encoding="utf-8"?>
<!-- Generator: Adobe Illustrator 16.0.0, SVG Export Plug-In . SVG Version: 6.00 Build 0)  -->
<!DOCTYPE svg PUBLIC "-//W3C//DTD SVG 1.1//EN" "http://www.w3.org/Graphics/SVG/1.1/DTD/svg11.dtd">
<svg version="1.1" id="Layer_1" xmlns="http://www.w3.org/2000/svg" xmlns:xlink="http://www.w3.org/1999/xlink" x="0px" y="0px"
	 width="244.583px" height="30px" viewBox="0 0 244.583 30" enable-background="new 0 0 244.583 30" xml:space="preserve">
<g>
	<g>
		<path d="M11.968,14.304c-0.48,1.842-1.009,3.672-1.584,5.488c-0.534,1.688-1.094,3.368-1.68,5.04H5.536
			c-0.478-1.107-0.926-2.229-1.344-3.359c-0.47-1.26-0.939-2.604-1.408-4.033c-0.491-1.496-0.96-3-1.408-4.509
			C0.906,11.349,0.448,9.738,0,8.096h4.096c0.192,0.896,0.416,1.861,0.672,2.896c0.256,1.035,0.523,2.09,0.8,3.168
			c0.277,1.077,0.565,2.128,0.864,3.152c0.299,1.021,0.597,1.963,0.896,2.813c0.665-2.042,1.273-4.103,1.824-6.176
			c0.277-1.045,0.539-2.064,0.784-3.056s0.464-1.925,0.656-2.8h2.976c0.431,1.959,0.895,3.912,1.392,5.856
			c0.268,1.05,0.556,2.097,0.864,3.136c0.31,1.045,0.624,2.061,0.944,3.04c0.277-0.854,0.565-1.792,0.864-2.813
			c0.299-1.024,0.592-2.078,0.88-3.152c0.288-1.077,0.56-2.133,0.816-3.168c0.256-1.035,0.48-2,0.672-2.896h4
			c-0.44,1.616-0.899,3.227-1.376,4.832c-0.47,1.579-0.939,3.083-1.408,4.511c-0.47,1.431-0.939,2.771-1.408,4.033
			c-0.419,1.135-0.878,2.256-1.376,3.357h-3.136c-0.587-1.676-1.158-3.354-1.712-5.04C12.988,17.98,12.449,16.15,11.968,14.304
			L11.968,14.304z M39.984,20.064c-0.384,1.088-0.928,2.016-1.632,2.783c-0.71,0.771-1.578,1.383-2.544,1.793
			c-0.992,0.426-2.085,0.639-3.28,0.639c-1.195,0-2.283-0.213-3.264-0.639c-0.96-0.412-1.822-1.023-2.528-1.793
			c-0.704-0.77-1.253-1.695-1.648-2.783s-0.592-2.293-0.592-3.617c0-1.322,0.197-2.522,0.592-3.599c0.395-1.077,0.95-2,1.664-2.768
			c0.712-0.766,1.58-1.372,2.544-1.776c0.981-0.416,2.059-0.624,3.232-0.624c1.173,0,2.256,0.208,3.248,0.624
			c0.968,0.399,1.836,1.005,2.544,1.776c0.704,0.768,1.253,1.69,1.648,2.768c0.395,1.077,0.592,2.277,0.592,3.599
			C40.56,17.771,40.368,18.977,39.984,20.064z M36.592,16.447c0-1.663-0.357-2.98-1.072-3.951c-0.715-0.97-1.712-1.456-2.992-1.456
			c-1.28,0-2.277,0.485-2.992,1.456c-0.715,0.97-1.072,2.288-1.072,3.951c0,1.686,0.357,3.02,1.072,4
			c0.715,0.982,1.712,1.473,2.992,1.473c1.28,0,2.277-0.49,2.992-1.473C36.235,19.467,36.592,18.133,36.592,16.447z M52.896,11.584
			c-0.32-0.107-0.763-0.219-1.328-0.336c-0.648-0.125-1.308-0.184-1.968-0.176c-0.427,0-0.88,0.043-1.36,0.128
			c-0.479,0.085-0.816,0.16-1.008,0.224v13.408H43.36V8.896c0.747-0.277,1.68-0.539,2.8-0.784c1.12-0.245,2.363-0.368,3.728-0.368
			c0.256,0,0.555,0.016,0.896,0.048c0.341,0.032,0.683,0.075,1.024,0.128c0.341,0.053,0.672,0.117,0.992,0.192
			c0.32,0.075,0.576,0.144,0.768,0.208L52.896,11.584z M58.928,14.624c0.524-0.548,1.047-1.097,1.568-1.648
			c0.55-0.582,1.094-1.168,1.632-1.76c0.533-0.587,1.04-1.152,1.52-1.696s0.89-1.019,1.232-1.424h4.576
			c-1.114,1.247-2.24,2.484-3.376,3.712c-1.17,1.266-2.36,2.514-3.568,3.745c0.712,0.602,1.385,1.248,2.016,1.936
			c0.719,0.773,1.402,1.58,2.048,2.416c0.661,0.854,1.28,1.707,1.856,2.562c0.521,0.765,1.002,1.556,1.44,2.368h-4.48
			c-0.416-0.711-0.858-1.402-1.328-2.08c-0.504-0.729-1.044-1.436-1.616-2.109c-0.562-0.668-1.149-1.314-1.76-1.938
			c-0.545-0.563-1.134-1.081-1.76-1.554v7.682h-3.872V0.64L58.928,0V14.624z M77.376,22.111c1.195,0,2.101-0.063,2.72-0.191v-4.288
			c-0.305-0.083-0.615-0.147-0.928-0.192c-0.445-0.064-0.894-0.099-1.344-0.096c-0.427,0-0.859,0.032-1.296,0.096
			c-0.41,0.059-0.81,0.178-1.184,0.354c-0.352,0.17-0.635,0.41-0.848,0.722c-0.213,0.311-0.32,0.697-0.32,1.168
			c0,0.918,0.288,1.553,0.864,1.902S76.395,22.111,77.376,22.111z M77.056,7.68c1.28,0,2.357,0.16,3.232,0.48
			c0.875,0.32,1.573,0.768,2.096,1.344c0.523,0.576,0.896,1.275,1.12,2.096c0.224,0.821,0.336,1.723,0.336,2.704v10.143
			c-0.597,0.129-1.499,0.283-2.704,0.465c-1.205,0.182-2.565,0.271-4.08,0.271c-1.003,0-1.92-0.098-2.752-0.287
			c-0.832-0.192-1.541-0.502-2.128-0.929c-0.591-0.433-1.063-1.005-1.376-1.663c-0.33-0.686-0.496-1.525-0.496-2.529
			c0-0.959,0.187-1.771,0.56-2.433c0.373-0.659,0.88-1.198,1.52-1.614c0.64-0.417,1.381-0.715,2.224-0.896
			c0.868-0.184,1.753-0.275,2.64-0.272c0.96,0.002,1.917,0.12,2.848,0.352v-0.64c0.002-0.432-0.052-0.862-0.16-1.28
			c-0.102-0.396-0.293-0.763-0.56-1.072c-0.287-0.323-0.65-0.571-1.056-0.72c-0.437-0.17-0.987-0.256-1.648-0.256
			c-0.896,0-1.717,0.064-2.464,0.192c-0.747,0.128-1.355,0.277-1.824,0.448l-0.48-3.136c0.49-0.17,1.205-0.341,2.144-0.512
			C74.987,7.766,75.989,7.68,77.056,7.68z M87.184,3.68l3.872-0.64v5.056h5.952v3.232h-5.952v6.816c0,1.344,0.213,2.303,0.639,2.879
			c0.428,0.576,1.152,0.865,2.177,0.865c0.704,0,1.328-0.076,1.872-0.227s0.977-0.288,1.296-0.416l0.64,3.07
			c-0.447,0.191-1.035,0.392-1.76,0.594c-0.725,0.201-1.579,0.304-2.561,0.304c-1.194,0-2.191-0.157-2.991-0.479
			c-0.8-0.319-1.435-0.783-1.904-1.393c-0.47-0.607-0.8-1.345-0.992-2.207c-0.192-0.865-0.288-1.852-0.288-2.962V3.68L87.184,3.68z
			 M114.688,16.447c0,1.324-0.191,2.529-0.576,3.617c-0.383,1.088-0.928,2.016-1.631,2.783c-0.711,0.771-1.578,1.383-2.545,1.793
			c-0.992,0.426-2.084,0.639-3.279,0.639c-1.195,0-2.283-0.213-3.264-0.639c-0.961-0.412-1.822-1.023-2.529-1.793
			c-0.703-0.77-1.252-1.695-1.647-2.783s-0.592-2.293-0.592-3.617c0-1.322,0.196-2.522,0.592-3.599c0.396-1.077,0.95-2,1.664-2.768
			c0.712-0.766,1.579-1.372,2.544-1.776c0.98-0.416,2.059-0.624,3.232-0.624c1.173,0,2.256,0.208,3.248,0.624
			c0.967,0.399,1.836,1.005,2.543,1.776c0.705,0.768,1.254,1.69,1.648,2.768C114.491,13.925,114.688,15.125,114.688,16.447
			L114.688,16.447z M110.721,16.447c0-1.663-0.357-2.98-1.072-3.951c-0.715-0.97-1.713-1.456-2.992-1.456
			c-1.28,0-2.277,0.485-2.992,1.456c-0.715,0.97-1.072,2.288-1.072,3.951c0,1.686,0.357,3.02,1.072,4
			c0.715,0.982,1.712,1.473,2.992,1.473c1.279,0,2.277-0.49,2.992-1.473C110.363,19.467,110.721,18.133,110.721,16.447z M125,0h1v30
			h-1V0z"/>
	</g>
	<text transform="matrix(1 0 0 1 134.5991 25.1973)" font-family="'Lato-Light'" font-size="24">Developer</text>
</g>
</svg>
