<?xml version="1.0" encoding="utf-8"?>
<!-- Generator: Adobe Illustrator 16.0.0, SVG Export Plug-In . SVG Version: 6.00 Build 0)  -->
<!DOCTYPE svg PUBLIC "-//W3C//DTD SVG 1.1//EN" "http://www.w3.org/Graphics/SVG/1.1/DTD/svg11.dtd">
<svg version="1.1" id="Layer_1" xmlns="http://www.w3.org/2000/svg" xmlns:xlink="http://www.w3.org/1999/xlink" x="0px" y="0px"
	 width="272.917px" height="30px" viewBox="0 0 272.917 30" enable-background="new 0 0 272.917 30" xml:space="preserve">
<g>
	<g>
		<g>
			<path fill="#27989F" d="M11.968,14.304c-0.48,1.842-1.009,3.672-1.584,5.488c-0.534,1.688-1.094,3.368-1.68,5.04H5.536
				c-0.478-1.107-0.926-2.229-1.344-3.359c-0.47-1.26-0.939-2.604-1.408-4.033c-0.491-1.496-0.96-3-1.408-4.51
				C0.906,11.349,0.448,9.738,0,8.096h4.096c0.192,0.896,0.416,1.861,0.672,2.896c0.256,1.035,0.523,2.09,0.8,3.168
				c0.277,1.077,0.565,2.128,0.864,3.152c0.299,1.022,0.597,1.963,0.896,2.814c0.665-2.042,1.273-4.102,1.824-6.176
				c0.277-1.045,0.539-2.064,0.784-3.056s0.464-1.925,0.656-2.8h2.976c0.431,1.959,0.895,3.912,1.392,5.856
				c0.268,1.05,0.556,2.097,0.864,3.136c0.31,1.045,0.624,2.06,0.944,3.04c0.277-0.854,0.565-1.792,0.864-2.814
				c0.299-1.024,0.592-2.077,0.88-3.152c0.288-1.077,0.56-2.133,0.816-3.168c0.256-1.035,0.48-2,0.672-2.896h4
				c-0.44,1.616-0.899,3.227-1.376,4.832c-0.47,1.579-0.939,3.083-1.408,4.511c-0.47,1.431-0.939,2.772-1.408,4.033
				c-0.419,1.135-0.878,2.256-1.376,3.358h-3.136c-0.587-1.675-1.158-3.354-1.712-5.04C12.988,17.98,12.449,16.15,11.968,14.304
				L11.968,14.304z M39.984,20.064c-0.384,1.088-0.928,2.016-1.632,2.783c-0.71,0.772-1.578,1.383-2.544,1.793
				c-0.992,0.426-2.085,0.639-3.28,0.639c-1.195,0-2.283-0.213-3.264-0.639c-0.96-0.412-1.822-1.023-2.528-1.793
				c-0.704-0.769-1.253-1.695-1.648-2.783s-0.592-2.293-0.592-3.617c0-1.322,0.197-2.522,0.592-3.599
				c0.395-1.077,0.95-2,1.664-2.768c0.712-0.766,1.58-1.372,2.544-1.776c0.981-0.416,2.059-0.624,3.232-0.624
				c1.173,0,2.256,0.208,3.248,0.624c0.968,0.399,1.836,1.005,2.544,1.776c0.704,0.768,1.253,1.69,1.648,2.768
				c0.395,1.077,0.592,2.277,0.592,3.599C40.56,17.771,40.368,18.977,39.984,20.064z M36.592,16.447c0-1.663-0.357-2.98-1.072-3.951
				c-0.715-0.97-1.712-1.456-2.992-1.456c-1.28,0-2.277,0.485-2.992,1.456c-0.715,0.97-1.072,2.288-1.072,3.951
				c0,1.686,0.357,3.02,1.072,4c0.715,0.982,1.712,1.473,2.992,1.473c1.28,0,2.277-0.49,2.992-1.473
				C36.235,19.467,36.592,18.133,36.592,16.447z M52.896,11.584c-0.32-0.107-0.763-0.219-1.328-0.336
				c-0.648-0.125-1.308-0.184-1.968-0.176c-0.427,0-0.88,0.043-1.36,0.128c-0.479,0.085-0.816,0.16-1.008,0.224v13.408H43.36V8.896
				c0.747-0.277,1.68-0.539,2.8-0.784c1.12-0.245,2.363-0.368,3.728-0.368c0.256,0,0.555,0.016,0.896,0.048
				c0.341,0.032,0.683,0.075,1.024,0.128c0.341,0.053,0.672,0.117,0.992,0.192c0.32,0.075,0.576,0.144,0.768,0.208L52.896,11.584z
				 M58.928,14.624c0.524-0.548,1.047-1.097,1.568-1.648c0.55-0.582,1.094-1.168,1.632-1.76c0.533-0.587,1.04-1.152,1.52-1.696
				s0.89-1.019,1.232-1.424h4.576c-1.114,1.247-2.24,2.484-3.376,3.712c-1.17,1.266-2.36,2.514-3.568,3.745
				c0.712,0.602,1.385,1.248,2.016,1.936c0.719,0.773,1.402,1.58,2.048,2.416c0.661,0.854,1.28,1.707,1.856,2.561
				c0.521,0.764,1.002,1.555,1.44,2.368h-4.48c-0.416-0.711-0.858-1.403-1.328-2.08c-0.504-0.729-1.044-1.435-1.616-2.11
				c-0.562-0.668-1.149-1.314-1.76-1.938c-0.545-0.563-1.134-1.081-1.76-1.553v7.681h-3.872V0.64L58.928,0V14.624z M77.376,22.111
				c1.195,0,2.101-0.063,2.72-0.191v-4.288c-0.305-0.083-0.615-0.147-0.928-0.192c-0.445-0.065-0.894-0.099-1.344-0.096
				c-0.427,0-0.859,0.032-1.296,0.096c-0.41,0.058-0.81,0.177-1.184,0.354c-0.352,0.17-0.635,0.41-0.848,0.721
				s-0.32,0.698-0.32,1.168c0,0.918,0.288,1.553,0.864,1.903S76.395,22.111,77.376,22.111z M77.056,7.68
				c1.28,0,2.357,0.16,3.232,0.48c0.875,0.32,1.573,0.768,2.096,1.344c0.523,0.576,0.896,1.275,1.12,2.096
				c0.224,0.821,0.336,1.723,0.336,2.704v10.143c-0.597,0.129-1.499,0.283-2.704,0.465c-1.205,0.182-2.565,0.271-4.08,0.271
				c-1.003,0-1.92-0.097-2.752-0.287c-0.832-0.192-1.541-0.502-2.128-0.929c-0.591-0.432-1.063-1.004-1.376-1.663
				c-0.33-0.685-0.496-1.525-0.496-2.529c0-0.959,0.187-1.771,0.56-2.433c0.373-0.659,0.88-1.198,1.52-1.614
				c0.64-0.417,1.381-0.715,2.224-0.896c0.868-0.184,1.753-0.275,2.64-0.272c0.96,0.002,1.917,0.12,2.848,0.352v-0.64
				c0.002-0.432-0.052-0.862-0.16-1.28c-0.102-0.396-0.293-0.763-0.56-1.072c-0.287-0.323-0.65-0.571-1.056-0.72
				c-0.437-0.17-0.987-0.256-1.648-0.256c-0.896,0-1.717,0.064-2.464,0.192c-0.747,0.128-1.355,0.277-1.824,0.448l-0.48-3.136
				c0.49-0.17,1.205-0.341,2.144-0.512C74.987,7.766,75.989,7.68,77.056,7.68z M87.184,3.68l3.872-0.64v5.056h5.952v3.232h-5.952
				v6.816c0,1.344,0.213,2.303,0.639,2.879c0.428,0.576,1.152,0.865,2.177,0.865c0.704,0,1.328-0.076,1.872-0.226
				s0.977-0.288,1.296-0.416l0.64,3.071c-0.447,0.191-1.035,0.391-1.76,0.593s-1.579,0.304-2.561,0.304
				c-1.194,0-2.191-0.158-2.991-0.479c-0.8-0.32-1.435-0.784-1.904-1.394c-0.47-0.606-0.8-1.344-0.992-2.206
				c-0.192-0.865-0.288-1.852-0.288-2.962V3.68L87.184,3.68z M114.688,16.447c0,1.324-0.191,2.529-0.576,3.617
				c-0.383,1.088-0.928,2.016-1.631,2.783c-0.711,0.772-1.578,1.383-2.545,1.793c-0.992,0.426-2.084,0.639-3.279,0.639
				c-1.195,0-2.283-0.213-3.264-0.639c-0.961-0.412-1.822-1.023-2.529-1.793c-0.703-0.769-1.252-1.695-1.647-2.783
				s-0.592-2.293-0.592-3.617c0-1.322,0.196-2.522,0.592-3.599c0.396-1.077,0.95-2,1.664-2.768c0.712-0.766,1.579-1.372,2.544-1.776
				c0.98-0.416,2.059-0.624,3.232-0.624c1.173,0,2.256,0.208,3.248,0.624c0.967,0.399,1.836,1.005,2.543,1.776
				c0.705,0.768,1.254,1.69,1.648,2.768C114.491,13.925,114.688,15.125,114.688,16.447L114.688,16.447z M110.721,16.447
				c0-1.663-0.357-2.98-1.072-3.951c-0.715-0.97-1.713-1.456-2.992-1.456c-1.28,0-2.277,0.485-2.992,1.456
				c-0.715,0.97-1.072,2.288-1.072,3.951c0,1.686,0.357,3.02,1.072,4c0.715,0.982,1.712,1.473,2.992,1.473
				c1.279,0,2.277-0.49,2.992-1.473C110.363,19.467,110.721,18.133,110.721,16.447z M125,0h1v30h-1V0z"/>
		</g>
	</g>
	<g>
		<path fill="#27989F" d="M160.197,14.15c0,1.631-0.244,3.098-0.73,4.401c-0.487,1.303-1.174,2.412-2.059,3.327
			s-1.947,1.616-3.186,2.103c-1.238,0.488-2.603,0.731-4.095,0.731h-7.712V3.604h7.712c1.492,0,2.856,0.244,4.095,0.731
			s2.301,1.188,3.186,2.103c0.885,0.915,1.571,2.024,2.059,3.327C159.953,11.067,160.197,12.529,160.197,14.15z M158.616,14.15
			c0-1.472-0.204-2.784-0.611-3.938c-0.408-1.154-0.985-2.128-1.73-2.924c-0.746-0.796-1.642-1.402-2.686-1.82
			c-1.044-0.417-2.198-0.626-3.461-0.626h-6.176v18.632h6.176c1.263,0,2.417-0.209,3.461-0.626c1.044-0.418,1.939-1.024,2.686-1.82
			c0.745-0.796,1.322-1.771,1.73-2.924C158.412,16.95,158.616,15.633,158.616,14.15z"/>
		<path fill="#27989F" d="M164.703,16.701v0.283c0,1.114,0.129,2.094,0.388,2.938c0.259,0.846,0.626,1.555,1.104,2.126
			c0.478,0.572,1.054,1.002,1.73,1.291c0.677,0.288,1.433,0.433,2.268,0.433c0.746,0,1.393-0.082,1.939-0.246
			s1.007-0.349,1.38-0.553c0.373-0.203,0.668-0.388,0.888-0.552c0.219-0.164,0.378-0.246,0.478-0.246
			c0.129,0,0.229,0.05,0.298,0.149l0.388,0.478c-0.238,0.298-0.555,0.576-0.947,0.835s-0.83,0.48-1.313,0.664s-1,0.331-1.551,0.44
			c-0.553,0.108-1.107,0.164-1.664,0.164c-1.014,0-1.939-0.177-2.774-0.53c-0.835-0.353-1.552-0.867-2.148-1.544
			c-0.597-0.676-1.057-1.504-1.38-2.483s-0.484-2.101-0.484-3.364c0-1.063,0.151-2.046,0.455-2.946
			c0.303-0.9,0.74-1.675,1.313-2.327c0.572-0.651,1.273-1.161,2.104-1.529s1.772-0.552,2.826-0.552c0.836,0,1.611,0.145,2.328,0.433
			c0.716,0.289,1.337,0.709,1.864,1.261c0.526,0.552,0.942,1.23,1.245,2.036c0.304,0.806,0.455,1.73,0.455,2.774
			c0,0.22-0.029,0.368-0.089,0.448c-0.06,0.079-0.159,0.119-0.298,0.119H164.703z M174.607,15.791c0-0.795-0.111-1.509-0.335-2.141
			c-0.224-0.631-0.54-1.166-0.947-1.604s-0.893-0.773-1.454-1.007c-0.563-0.233-1.182-0.35-1.857-0.35
			c-0.766,0-1.452,0.119-2.059,0.358c-0.607,0.239-1.132,0.582-1.574,1.029c-0.442,0.447-0.798,0.984-1.066,1.611
			c-0.269,0.627-0.447,1.328-0.537,2.104H174.607z"/>
		<path fill="#27989F" d="M191.42,9.869l-6.266,14.843h-1.253l-6.266-14.843h1.119c0.139,0,0.253,0.038,0.343,0.112
			c0.089,0.075,0.149,0.157,0.179,0.246l4.908,11.711c0.148,0.438,0.269,0.87,0.357,1.298c0.09-0.428,0.215-0.86,0.373-1.298
			l4.923-11.711c0.05-0.109,0.117-0.196,0.202-0.261c0.084-0.064,0.187-0.097,0.306-0.097H191.42z"/>
		<path fill="#27989F" d="M194.613,16.701v0.283c0,1.114,0.129,2.094,0.388,2.938c0.258,0.846,0.626,1.555,1.104,2.126
			c0.478,0.572,1.055,1.002,1.73,1.291c0.677,0.288,1.433,0.433,2.268,0.433c0.746,0,1.393-0.082,1.939-0.246
			s1.007-0.349,1.38-0.553c0.373-0.203,0.669-0.388,0.888-0.552s0.378-0.246,0.478-0.246c0.129,0,0.229,0.05,0.298,0.149
			l0.388,0.478c-0.238,0.298-0.554,0.576-0.947,0.835c-0.393,0.259-0.83,0.48-1.313,0.664s-0.999,0.331-1.552,0.44
			c-0.552,0.108-1.106,0.164-1.663,0.164c-1.015,0-1.939-0.177-2.774-0.53c-0.836-0.353-1.552-0.867-2.148-1.544
			c-0.597-0.676-1.057-1.504-1.38-2.483s-0.484-2.101-0.484-3.364c0-1.063,0.151-2.046,0.455-2.946
			c0.303-0.9,0.74-1.675,1.313-2.327c0.571-0.651,1.272-1.161,2.104-1.529c0.83-0.368,1.772-0.552,2.827-0.552
			c0.835,0,1.61,0.145,2.327,0.433c0.716,0.289,1.337,0.709,1.864,1.261s0.942,1.23,1.246,2.036c0.303,0.806,0.454,1.73,0.454,2.774
			c0,0.22-0.029,0.368-0.089,0.448c-0.06,0.079-0.159,0.119-0.299,0.119H194.613z M204.518,15.791c0-0.795-0.112-1.509-0.336-2.141
			c-0.224-0.631-0.54-1.166-0.947-1.604c-0.408-0.438-0.893-0.773-1.454-1.007c-0.563-0.233-1.182-0.35-1.857-0.35
			c-0.767,0-1.452,0.119-2.059,0.358c-0.607,0.239-1.132,0.582-1.574,1.029c-0.442,0.447-0.798,0.984-1.066,1.611
			c-0.269,0.627-0.447,1.328-0.537,2.104H204.518z"/>
		<path fill="#27989F" d="M211.231,3.006v21.706h-1.432V3.006H211.231z"/>
		<path fill="#27989F" d="M222.135,9.63c1.063,0,2.017,0.182,2.856,0.544c0.841,0.363,1.549,0.878,2.126,1.544
			c0.577,0.666,1.017,1.469,1.32,2.409c0.303,0.939,0.455,1.991,0.455,3.155c0,1.163-0.152,2.213-0.455,3.147
			c-0.304,0.935-0.743,1.735-1.32,2.401c-0.577,0.667-1.285,1.179-2.126,1.537c-0.84,0.357-1.793,0.537-2.856,0.537
			c-1.064,0-2.017-0.18-2.856-0.537c-0.841-0.358-1.552-0.87-2.134-1.537c-0.582-0.666-1.024-1.467-1.327-2.401
			c-0.304-0.935-0.455-1.984-0.455-3.147c0-1.164,0.151-2.216,0.455-3.155c0.303-0.94,0.745-1.743,1.327-2.409
			c0.582-0.667,1.293-1.181,2.134-1.544C220.119,9.812,221.071,9.63,222.135,9.63z M222.135,23.787c0.885,0,1.658-0.151,2.319-0.455
			s1.214-0.738,1.656-1.306c0.442-0.566,0.773-1.25,0.992-2.051s0.328-1.698,0.328-2.692c0-0.985-0.109-1.88-0.328-2.686
			s-0.55-1.494-0.992-2.066s-0.995-1.012-1.656-1.32s-1.435-0.462-2.319-0.462c-0.886,0-1.658,0.154-2.319,0.462
			c-0.662,0.308-1.214,0.749-1.656,1.32s-0.775,1.26-1,2.066c-0.224,0.806-0.335,1.7-0.335,2.686c0,0.994,0.111,1.892,0.335,2.692
			c0.225,0.801,0.558,1.484,1,2.051c0.442,0.567,0.994,1.002,1.656,1.306C220.477,23.636,221.25,23.787,222.135,23.787z"/>
		<path fill="#27989F" d="M234.279,12.539c0.656-0.895,1.424-1.606,2.305-2.133c0.88-0.527,1.867-0.791,2.961-0.791
			c1.82,0,3.239,0.631,4.259,1.895s1.529,3.158,1.529,5.684c0,1.084-0.142,2.096-0.425,3.036c-0.284,0.939-0.701,1.755-1.254,2.446
			c-0.552,0.691-1.228,1.235-2.028,1.634c-0.801,0.397-1.723,0.597-2.768,0.597c-1.004,0-1.874-0.185-2.61-0.553
			c-0.736-0.367-1.372-0.909-1.909-1.626v7.235h-1.433V9.869h0.791c0.248,0,0.393,0.125,0.433,0.373L234.279,12.539z
			 M234.338,21.475c0.288,0.428,0.589,0.788,0.902,1.082c0.313,0.293,0.644,0.532,0.992,0.716c0.348,0.184,0.718,0.315,1.111,0.396
			c0.393,0.079,0.808,0.119,1.245,0.119c0.875,0,1.642-0.159,2.298-0.478s1.205-0.769,1.648-1.35
			c0.442-0.582,0.775-1.278,0.999-2.089s0.336-1.703,0.336-2.678c0-2.208-0.408-3.832-1.224-4.871s-1.983-1.559-3.505-1.559
			c-0.985,0-1.875,0.254-2.671,0.761c-0.796,0.507-1.507,1.214-2.133,2.119V21.475z"/>
		<path fill="#27989F" d="M249.868,16.701v0.283c0,1.114,0.129,2.094,0.388,2.938c0.258,0.846,0.626,1.555,1.104,2.126
			c0.478,0.572,1.055,1.002,1.73,1.291c0.677,0.288,1.433,0.433,2.268,0.433c0.746,0,1.393-0.082,1.939-0.246
			s1.007-0.349,1.38-0.553c0.373-0.203,0.669-0.388,0.888-0.552s0.378-0.246,0.478-0.246c0.129,0,0.229,0.05,0.298,0.149
			l0.388,0.478c-0.238,0.298-0.554,0.576-0.947,0.835c-0.393,0.259-0.83,0.48-1.313,0.664s-0.999,0.331-1.552,0.44
			c-0.552,0.108-1.106,0.164-1.663,0.164c-1.015,0-1.939-0.177-2.774-0.53c-0.836-0.353-1.552-0.867-2.148-1.544
			c-0.597-0.676-1.057-1.504-1.38-2.483s-0.484-2.101-0.484-3.364c0-1.063,0.151-2.046,0.455-2.946
			c0.303-0.9,0.74-1.675,1.313-2.327c0.571-0.651,1.272-1.161,2.104-1.529c0.83-0.368,1.772-0.552,2.827-0.552
			c0.835,0,1.61,0.145,2.327,0.433c0.716,0.289,1.337,0.709,1.864,1.261s0.942,1.23,1.246,2.036c0.303,0.806,0.454,1.73,0.454,2.774
			c0,0.22-0.029,0.368-0.089,0.448c-0.06,0.079-0.159,0.119-0.299,0.119H249.868z M259.773,15.791c0-0.795-0.112-1.509-0.336-2.141
			c-0.224-0.631-0.54-1.166-0.947-1.604c-0.408-0.438-0.893-0.773-1.454-1.007c-0.563-0.233-1.182-0.35-1.857-0.35
			c-0.767,0-1.452,0.119-2.059,0.358c-0.607,0.239-1.132,0.582-1.574,1.029c-0.442,0.447-0.798,0.984-1.066,1.611
			c-0.269,0.627-0.447,1.328-0.537,2.104H259.773z"/>
		<path fill="#27989F" d="M266.277,13.449c0.229-0.607,0.49-1.146,0.783-1.619c0.294-0.472,0.632-0.873,1.015-1.201
			s0.811-0.579,1.283-0.753c0.472-0.174,0.997-0.261,1.573-0.261c0.309,0,0.612,0.027,0.91,0.082
			c0.299,0.055,0.562,0.152,0.791,0.291l-0.119,0.984c-0.05,0.159-0.145,0.239-0.284,0.239c-0.119,0-0.301-0.035-0.544-0.104
			c-0.244-0.069-0.564-0.104-0.962-0.104c-0.577,0-1.087,0.087-1.529,0.261c-0.443,0.174-0.841,0.435-1.193,0.783
			c-0.354,0.348-0.662,0.778-0.925,1.29c-0.264,0.513-0.505,1.102-0.724,1.768v9.607h-1.433V9.869h0.761
			c0.169,0,0.289,0.035,0.358,0.104c0.069,0.07,0.114,0.189,0.134,0.358L266.277,13.449z"/>
	</g>
</g>
</svg>
